<?xml version="1.0" encoding="utf-8"?>
<!-- Generator: Adobe Illustrator 28.0.0, SVG Export Plug-In . SVG Version: 6.00 Build 0)  -->
<svg version="1.1" id="Ebene_1" xmlns="http://www.w3.org/2000/svg" xmlns:xlink="http://www.w3.org/1999/xlink" x="0px" y="0px"
	 viewBox="0 0 283.5 283.5" style="enable-background:new 0 0 283.5 283.5;" xml:space="preserve">
<style type="text/css">
	.st0{fill:#28348A;}
</style>
<g>
	<g>
		<path class="st0" d="M186.3,164.2c-1,0-2-0.4-2.8-1.1l-7.8-7.8l5.5-5.5l5,5l12.8-12.8l5.5,5.5L189,163l0,0
			C188.3,163.8,187.3,164.2,186.3,164.2L186.3,164.2z"/>
		<path class="st0" d="M186.2,164.2c-1,0-2-0.4-2.8-1.1l0,0l-15.6-15.6l5.5-5.5l12.8,12.8l5-5l5.5,5.5L189,163
			C188.3,163.8,187.3,164.2,186.2,164.2L186.2,164.2L186.2,164.2z"/>
	</g>
	<g>
		<path class="st0" d="M186.3,184.2c-1,0-2-0.4-2.8-1.1l-7.8-7.8l5.5-5.5l5,5l12.8-12.8l5.5,5.5L189,183l0,0
			C188.3,183.8,187.3,184.2,186.3,184.2L186.3,184.2z"/>
		<path class="st0" d="M186.2,184.2c-1,0-2-0.4-2.8-1.1l0,0l-15.6-15.6l5.5-5.5l12.8,12.8l5-5l5.5,5.5L189,183
			C188.3,183.8,187.3,184.2,186.2,184.2L186.2,184.2L186.2,184.2z"/>
	</g>
	<path class="st0" d="M207.7,199.3H75.4c-3.1,0-6.1-1.2-8.2-3.4s-3.4-5.1-3.4-8.2v-85.6c0-3.1,1.2-6.1,3.4-8.2
		c2.2-2.2,5.2-3.4,8.2-3.4h26.7v7.8H75.4c-2.2,0-3.9,1.7-3.9,3.9v85.6c0,1,0.4,2,1.1,2.8c0.7,0.7,1.7,1.1,2.8,1.1h132.2
		c1,0,2-0.4,2.8-1.1c0.7-0.7,1.1-1.7,1.1-2.8h7.8c0,3.1-1.2,6.1-3.4,8.2S210.8,199.3,207.7,199.3L207.7,199.3z"/>
	<path class="st0" d="M75.8,199.3c-3.1,0-6.1-1.2-8.2-3.4s-3.4-5.1-3.4-8.2h7.8c0,1,0.4,2,1.1,2.8c0.7,0.7,1.7,1.1,2.8,1.1H208
		c1,0,2-0.4,2.8-1.1c0.7-0.7,1.1-1.7,1.1-2.8v-85.6c0-2.2-1.7-3.9-3.9-3.9h-4.7v-7.8h4.7c3.1,0,6.1,1.2,8.2,3.4
		c2.2,2.2,3.4,5.2,3.4,8.2v85.6c0,3.1-1.2,6.1-3.4,8.2s-5.2,3.4-8.2,3.4H75.8L75.8,199.3z"/>
	<path class="st0" d="M98.8,222.6h85.6v7.8H98.8V222.6z"/>
	<path class="st0" d="M106.5,230.4l0-7.8c2.1,0.1,4.2-0.6,5.7-2.1c1.5-1.5,2.3-3.6,2.1-5.7v-19.4h7.8v19.4c0.1,4.2-1.5,8.2-4.4,11.1
		S110.7,230.5,106.5,230.4L106.5,230.4L106.5,230.4z"/>
	<path class="st0" d="M176.5,230.4c-4.2,0.1-8.2-1.5-11.1-4.4s-4.5-7-4.4-11.1v-19.4h7.8v19.4c-0.1,2.1,0.6,4.2,2.1,5.6
		c1.5,1.5,3.6,2.3,5.6,2.1L176.5,230.4L176.5,230.4z"/>
	<path class="st0" d="M161.4,178.3H91c-3.1,0-6.1-1.2-8.2-3.4s-3.4-5.1-3.4-8.2v-41.2c0-3.1,1.2-6.1,3.4-8.2
		c2.2-2.2,5.2-3.4,8.2-3.4h11.4v7.8H91c-2.2,0-3.9,1.7-3.9,3.9v41.2c0,1,0.4,2,1.1,2.8c0.7,0.7,1.7,1.1,2.8,1.1h70.4V178.3z"/>
	<g>
		<path class="st0" d="M151.9,138.6c-11.4,0-22.2-4.5-30.3-12.5s-12.5-18.9-12.5-30.2s4.5-22.2,12.5-30.2c8-8,18.9-12.5,30.3-12.5
			s22.2,4.5,30.2,12.5c8,8,12.5,18.9,12.5,30.2c0,11.3-4.5,22.2-12.5,30.2S163.3,138.6,151.9,138.6L151.9,138.6z M151.9,60.8
			c-9.3,0-18.2,3.7-24.8,10.2c-6.6,6.6-10.2,15.5-10.2,24.8s3.7,18.2,10.2,24.8c6.6,6.6,15.5,10.2,24.8,10.2s18.2-3.7,24.8-10.2
			c6.6-6.6,10.2-15.5,10.2-24.8c0-9.3-3.7-18.2-10.3-24.7C170.1,64.5,161.2,60.8,151.9,60.8L151.9,60.8z"/>
		<g>
			<path class="st0" d="M149,96.8V83.6c0-1.6,1.3-2.9,2.9-2.9c1.6,0,2.9,1.3,2.9,2.9v11.5l7.3,4.2c1.4,0.8,1.9,2.6,1.1,4
				c-0.5,0.9-1.5,1.5-2.5,1.5c-0.5,0-1-0.1-1.4-0.4l-8.8-5.1C149.6,98.8,149,97.8,149,96.8L149,96.8z"/>
			<path class="st0" d="M149,72.1v-3c0-1.6,1.3-2.9,2.9-2.9c1.6,0,2.9,1.3,2.9,2.9v3c0,1.6-1.3,2.9-2.9,2.9
				C150.3,75,149,73.7,149,72.1z"/>
			<path class="st0" d="M167.3,81.4c-1.1-1.1-1.1-3,0-4.1l2.1-2.1c1.1-1.1,3-1.1,4.1,0c1.1,1.1,1.1,3,0,4.1l-2.1,2.1
				c-0.6,0.6-1.3,0.8-2.1,0.8C168.6,82.2,167.9,82,167.3,81.4z"/>
			<path class="st0" d="M167.3,116.3c-1.1-1.1-1.1-3,0-4.1c1.1-1.1,3-1.1,4.1,0l2.1,2.1c1.1,1.1,1.1,3,0,4.1
				c-0.6,0.6-1.3,0.8-2.1,0.8s-1.5-0.3-2.1-0.8L167.3,116.3z"/>
			<path class="st0" d="M136.5,112.2c1.1,1.1,1.1,3,0,4.1l-2.1,2.1c-0.6,0.6-1.3,0.8-2.1,0.8s-1.5-0.3-2.1-0.8c-1.1-1.1-1.1-3,0-4.1
				l2.1-2.1C133.5,111.1,135.4,111.1,136.5,112.2z"/>
			<path class="st0" d="M130.2,79.3c-1.1-1.1-1.1-3,0-4.1c1.1-1.1,3-1.1,4.1,0l2.1,2.1c1.1,1.1,1.1,3,0,4.1
				c-0.6,0.6-1.3,0.8-2.1,0.8s-1.5-0.3-2.1-0.8L130.2,79.3z"/>
			<path class="st0" d="M173.7,96.8c0-1.6,1.3-2.9,2.9-2.9h3c1.6,0,2.9,1.3,2.9,2.9s-1.3,2.9-2.9,2.9h-3
				C175,99.7,173.7,98.4,173.7,96.8z"/>
			<path class="st0" d="M149,124.5v-3c0-1.6,1.3-2.9,2.9-2.9c1.6,0,2.9,1.3,2.9,2.9v3c0,1.6-1.3,2.9-2.9,2.9
				C150.3,127.4,149,126.1,149,124.5z"/>
			<path class="st0" d="M121.3,96.8c0-1.6,1.3-2.9,2.9-2.9h3c1.6,0,2.9,1.3,2.9,2.9s-1.3,2.9-2.9,2.9h-3
				C122.6,99.7,121.3,98.4,121.3,96.8z"/>
		</g>
	</g>
</g>
</svg>
