<?xml version="1.0" encoding="UTF-8"?>
<!-- Generator: Adobe Illustrator 28.0.0, SVG Export Plug-In . SVG Version: 6.00 Build 0)  -->
<svg version="1.1" id="Ebene_1" xmlns="http://www.w3.org/2000/svg" xmlns:xlink="http://www.w3.org/1999/xlink" x="0px" y="0px" viewBox="0 0 283.5 283.5" style="enable-background:new 0 0 283.5 283.5;" xml:space="preserve"><script xmlns=""/>
<style type="text/css">
	.st0{fill:#28348A;}
</style>
<g>
	<path class="st0" d="M192.3,135.9c-11.4,0-22.2-4.5-30.2-12.5s-12.5-18.9-12.5-30.2S154,70.9,162,62.9c8-8,18.9-12.5,30.2-12.5   s22.2,4.5,30.2,12.5c8,8,12.5,18.9,12.5,30.2c0,11.3-4.5,22.2-12.5,30.2C214.5,131.4,203.6,135.9,192.3,135.9L192.3,135.9z    M192.3,58.2c-9.3,0-18.2,3.7-24.8,10.2c-6.6,6.6-10.2,15.5-10.2,24.8s3.7,18.2,10.2,24.8c6.6,6.6,15.5,10.2,24.8,10.2   s18.2-3.7,24.8-10.2c6.6-6.6,10.2-15.5,10.2-24.8c0-9.3-3.7-18.2-10.3-24.7C210.5,61.9,201.6,58.2,192.3,58.2L192.3,58.2z"/>
	<path class="st0" d="M176.7,104.8c-3.1,0-6.1-1.2-8.2-3.4c-2.2-2.2-3.4-5.2-3.4-8.2s1.2-6.1,3.4-8.2s5.2-3.4,8.2-3.4   s6.1,1.2,8.2,3.4c2.2,2.2,3.4,5.2,3.4,8.2s-1.2,6.1-3.4,8.2S179.8,104.8,176.7,104.8z M176.7,89.3L176.7,89.3c-1.6,0-3,0.9-3.6,2.4   c-0.6,1.4-0.3,3.1,0.8,4.2s2.8,1.4,4.2,0.8c1.4-0.6,2.4-2,2.4-3.6c0-1-0.4-2-1.1-2.8S177.8,89.3,176.7,89.3L176.7,89.3z"/>
	<path class="st0" d="M207.8,104.8c-3.1,0-6.1-1.2-8.2-3.4c-2.2-2.2-3.4-5.2-3.4-8.2s1.2-6.1,3.4-8.2s5.1-3.4,8.2-3.4   s6.1,1.2,8.2,3.4c2.2,2.2,3.4,5.2,3.4,8.2s-1.2,6.1-3.4,8.2S210.9,104.8,207.8,104.8z M207.8,89.3L207.8,89.3c-1.6,0-3,0.9-3.6,2.4   c-0.6,1.4-0.3,3.1,0.8,4.2s2.8,1.4,4.2,0.8c1.4-0.6,2.4-2,2.4-3.6c0-1-0.4-2-1.1-2.8S208.9,89.3,207.8,89.3L207.8,89.3z"/>
	<path class="st0" d="M188.4,100.9h7.8v31.1h-7.8V100.9z"/>
	<path class="st0" d="M203.9,167.2v-39h7.8v38.9c0,1-0.4,2-1.1,2.8s-1.7,1.1-2.8,1.1l0,0"/>
	<path class="st0" d="M176.7,170.9c-2.1,0-3.9-1.7-3.9-3.9v-38.9h7.8v39"/>
	<path class="st0" d="M195,185.4c-0.7,0.7-1.7,1.1-2.8,1.1l0,0c-1,0-2-0.4-2.8-1.1L174,169.8l5.5-5.5l12.8,12.8l12.8-12.8l5.5,5.5"/>
	<path class="st0" d="M176.7,147.8h31.1v7.8h-31.1V147.8z"/>
	<path class="st0" d="M176.7,97.1h31.1v7.8h-31.1V97.1z"/>
	<path class="st0" d="M192.3,205.9H60.1c-3.1,0-6.1-1.2-8.2-3.4s-3.4-5.1-3.4-8.2v-85.6c0-3.1,1.2-6.1,3.4-8.2s5.2-3.4,8.2-3.4h11.7   v7.8H60.1c-2.2,0-3.9,1.7-3.9,3.9v85.6c0,1,0.4,2,1.1,2.8s1.7,1.1,2.8,1.1h132.2c1,0,2-0.4,2.8-1.1s1.1-1.7,1.1-2.8h7.8   c0,3.1-1.2,6.1-3.4,8.2S195.4,205.9,192.3,205.9L192.3,205.9L192.3,205.9z"/>
	<path class="st0" d="M83.4,229.3h85.6v7.8H83.4C83.4,237.1,83.4,229.3,83.4,229.3z"/>
	<path class="st0" d="M91.2,237.1l0-7.8c2.1,0.1,4.2-0.6,5.7-2.1c1.5-1.5,2.3-3.6,2.1-5.7v-19.4h7.8v19.4c0.1,4.2-1.5,8.2-4.4,11.1   C99.4,235.6,95.3,237.2,91.2,237.1L91.2,237.1L91.2,237.1z"/>
	<path class="st0" d="M161.2,237.1c-4.2,0.1-8.2-1.5-11.1-4.4s-4.5-7-4.4-11.1v-19.4h7.8v19.4c-0.1,2.1,0.6,4.2,2.1,5.6   c1.5,1.5,3.6,2.3,5.6,2.1L161.2,237.1L161.2,237.1z"/>
	<path class="st0" d="M110.6,124.2c-1.4,0-2.7-0.7-3.4-1.9l-7.9-13.6h-8.1c-3.1,0-6.1-1.2-8.2-3.4c-2.2-2.2-3.4-5.2-3.4-8.2V58.1   c0-3.1,1.2-6.1,3.4-8.2c2.2-2.2,5.2-3.4,8.2-3.4h38.9c3.1,0,6.1,1.2,8.2,3.4s3.4,5.2,3.4,8.2v38.9c0,3.1-1.2,6.1-3.4,8.2   s-5.2,3.4-8.2,3.4h-8.1l-7.9,13.6C113.3,123.4,112,124.2,110.6,124.2L110.6,124.2L110.6,124.2z M91.2,54.2c-2.1,0-3.9,1.7-3.9,3.9   v38.9c0,1,0.4,2,1.1,2.8c0.7,0.7,1.7,1.1,2.8,1.1h10.4c1.4,0,2.7,0.7,3.4,1.9l5.7,9.8l5.7-9.8c0.7-1.2,2-1.9,3.4-1.9h10.4   c1,0,2-0.4,2.8-1.1s1.1-1.7,1.1-2.8V58.1c0-1-0.4-2-1.1-2.8s-1.7-1.1-2.8-1.1L91.2,54.2L91.2,54.2z"/>
	<path class="st0" d="M106.7,89.2c-1,0-2-0.4-2.8-1.1l-7.8-7.8l5.5-5.5l5,5L119.5,67l5.5,5.5L109.5,88l0,0   C108.8,88.8,107.8,89.2,106.7,89.2L106.7,89.2z"/>
	<path class="st0" d="M166.1,182.9H83.6c-3.1,0-6.1-1.2-8.2-3.4s-3.4-5.1-3.4-8.2v-32.2c0-3.1,1.2-6.1,3.4-8.2s5.1-3.4,8.2-3.4h15.4   v7.8H83.6c-2.2,0-3.9,1.7-3.9,3.9v32.2c0,1,0.4,2,1.1,2.8s1.7,1.1,2.8,1.1h82.4V182.9z"/>
</g>
</svg>